<svg width="4573" height="1429" xmlns="http://www.w3.org/2000/svg" xmlns:xlink="http://www.w3.org/1999/xlink" xml:space="preserve" overflow="hidden"><defs><clipPath id="clip0"><rect x="153" y="479" width="4573" height="1429"/></clipPath></defs><g clip-path="url(#clip0)" transform="translate(-153 -479)"><path d="M1898 1623.05C1902 1623.05 1902 1623.05 1902 1623.05 1910 1623.05 1912 1627.07 1912 1637.13 1912 1749.81 1912 1749.81 1912 1749.81 1912 1761.88 1910 1769.93 1906 1769.93 1904 1769.93 1902 1767.92 1900 1763.89 1896 1759.87 1894 1757.86 1890 1757.86 1884 1757.86 1880 1761.88 1880 1769.93 1880 1777.98 1886 1782 1896 1782 1906 1782 1914 1777.98 1920 1769.93 1930 1757.86 1934 1743.77 1934 1723.65 1934 1637.13 1934 1637.13 1934 1637.13 1934 1627.07 1938 1623.05 1946 1623.05 1948 1623.05 1948 1623.05 1948 1623.05 1948 1615 1948 1615 1948 1615 1898 1615 1898 1615 1898 1615L1898 1623.05Z" fill="#030000" fill-rule="evenodd"/><path d="M1971 1627C1973 1627 1973 1627 1973 1627 1983 1625 1989 1631 1987 1645 1987 1751 1987 1751 1987 1751 1989 1763 1983 1769 1973 1769 1971 1769 1971 1769 1971 1769 1971 1779 1971 1779 1971 1779 2035 1779 2035 1779 2035 1779 2035 1769 2035 1769 2035 1769 2033 1769 2033 1769 2033 1769 2021 1769 2015 1763 2017 1749 2017 1645 2017 1645 2017 1645 2017 1633 2021 1627 2033 1627 2035 1627 2035 1627 2035 1627 2035 1615 2035 1615 2035 1615 1971 1615 1971 1615 1971 1615L1971 1627Z" fill="#030000" fill-rule="evenodd"/><path d="M2189.71 1744.8C2147.15 1610 2147.15 1610 2147.15 1610 2116.75 1610 2116.75 1610 2116.75 1610 2118.77 1618.05 2118.77 1618.05 2118.77 1618.05 2082.29 1744.8 2082.29 1744.8 2082.29 1744.8 2078.24 1760.89 2072.16 1768.94 2062.03 1768.94 2060 1768.94 2060 1768.94 2060 1768.94 2060 1779 2060 1779 2060 1779 2114.72 1779 2114.72 1779 2114.72 1779 2114.72 1768.94 2114.72 1768.94 2114.72 1768.94 2112.69 1768.94 2112.69 1768.94 2112.69 1768.94 2102.56 1768.94 2096.48 1766.93 2094.45 1764.92 2092.43 1762.9 2092.43 1756.87 2096.48 1748.82 2104.59 1718.64 2104.59 1718.64 2104.59 1718.64 2151.2 1718.64 2151.2 1718.64 2151.2 1718.64 2159.31 1748.82 2159.31 1748.82 2159.31 1748.82 2163.36 1754.86 2163.36 1760.89 2161.33 1762.9 2159.31 1766.93 2155.25 1768.94 2151.2 1768.94 2143.09 1768.94 2143.09 1768.94 2143.09 1768.94 2143.09 1779 2143.09 1779 2143.09 1779 2212 1779 2212 1779 2212 1779 2212 1768.94 2212 1768.94 2212 1768.94 2201.87 1768.94 2193.76 1760.89 2189.71 1744.8ZM2108.64 1704.56C2126.88 1642.19 2126.88 1642.19 2126.88 1642.19 2145.12 1704.56 2145.12 1704.56 2145.12 1704.56L2108.64 1704.56Z" fill="#030000" fill-rule="evenodd"/><path d="M2343.66 1627C2345.68 1627 2345.68 1627 2345.68 1627 2353.73 1627 2359.76 1627 2361.78 1631 2363.79 1633 2365.8 1639 2365.8 1649 2365.8 1727 2365.8 1727 2365.8 1727 2279.26 1615 2279.26 1615 2279.26 1615 2237 1615 2237 1615 2237 1615 2237 1627 2237 1627 2237 1627 2243.04 1627 2249.08 1627 2253.1 1631 2253.1 1753 2253.1 1753 2253.1 1753 2253.1 1763 2249.08 1769 2237 1769 2237 1769 2237 1769 2237 1769 2237 1779 2237 1779 2237 1779 2287.31 1779 2287.31 1779 2287.31 1779 2287.31 1769 2287.31 1769 2287.31 1769 2273.23 1771 2265.18 1763 2267.19 1747 2267.19 1649 2267.19 1649 2267.19 1649 2365.8 1779 2365.8 1779 2365.8 1779 2377.88 1779 2377.88 1779 2377.88 1779 2377.88 1639 2377.88 1639 2377.88 1639 2377.88 1629 2381.9 1625 2393.98 1627 2398 1627 2398 1627 2398 1627 2398 1615 2398 1615 2398 1615 2343.66 1615 2343.66 1615 2343.66 1615L2343.66 1627Z" fill="#030000" fill-rule="evenodd"/><path d="M2509.07 1711.18C2519.21 1711.18 2527.32 1713.2 2529.34 1715.22 2533.4 1717.25 2535.42 1721.29 2535.42 1727.36 2535.42 1763.79 2535.42 1763.79 2535.42 1763.79 2529.34 1767.84 2521.23 1769.86 2511.1 1769.86 2480.69 1767.84 2462.44 1741.53 2460.41 1694.99 2462.44 1648.45 2480.69 1624.16 2511.1 1622.14 2533.4 1622.14 2549.62 1636.31 2555.7 1664.64 2563.81 1664.64 2563.81 1664.64 2563.81 1664.64 2563.81 1616.07 2563.81 1616.07 2563.81 1616.07 2557.73 1616.07 2557.73 1616.07 2557.73 1616.07 2557.73 1618.09 2555.7 1620.12 2551.64 1620.12 2549.62 1620.12 2545.56 1618.09 2541.51 1616.07 2527.32 1612.02 2515.15 1610 2505.01 1610 2458.38 1614.05 2432.03 1642.38 2430 1694.99 2432.03 1751.65 2458.38 1779.98 2509.07 1782 2527.32 1782 2545.56 1775.93 2563.81 1765.81 2563.81 1727.36 2563.81 1727.36 2563.81 1727.36 2563.81 1715.22 2567.86 1709.15 2578 1711.18 2578 1699.04 2578 1699.04 2578 1699.04 2509.07 1699.04 2509.07 1699.04 2509.07 1699.04L2509.07 1711.18Z" fill="#030000" fill-rule="evenodd"/><path d="M2712 1627C2714 1627 2714 1627 2714 1627 2722 1627 2728 1627 2730 1631 2732 1633 2734 1639 2734 1649 2734 1727 2734 1727 2734 1727 2648 1615 2648 1615 2648 1615 2606 1615 2606 1615 2606 1615 2606 1627 2606 1627 2606 1627 2612 1627 2618 1627 2622 1631 2622 1753 2622 1753 2622 1753 2622 1763 2618 1769 2606 1769 2606 1769 2606 1769 2606 1769 2606 1779 2606 1779 2606 1779 2656 1779 2656 1779 2656 1779 2656 1769 2656 1769 2656 1769 2640 1771 2634 1763 2636 1747 2636 1649 2636 1649 2636 1649 2734 1779 2734 1779 2734 1779 2746 1779 2746 1779 2746 1779 2746 1639 2746 1639 2746 1639 2744 1629 2750 1625 2762 1627 2764 1627 2764 1627 2764 1627 2764 1615 2764 1615 2764 1615 2712 1615 2712 1615 2712 1615L2712 1627Z" fill="#030000" fill-rule="evenodd"/><path d="M2919.87 1744.8C2877.59 1610 2877.59 1610 2877.59 1610 2847.39 1610 2847.39 1610 2847.39 1610 2849.4 1618.05 2849.4 1618.05 2849.4 1618.05 2813.16 1744.8 2813.16 1744.8 2813.16 1744.8 2809.13 1760.89 2801.08 1768.94 2793.03 1768.94 2789 1768.94 2789 1768.94 2789 1768.94 2789 1779 2789 1779 2789 1779 2845.37 1779 2845.37 1779 2845.37 1779 2845.37 1768.94 2845.37 1768.94 2845.37 1768.94 2841.35 1768.94 2841.35 1768.94 2841.35 1768.94 2833.29 1768.94 2827.25 1766.93 2825.24 1764.92 2823.23 1762.9 2823.23 1756.87 2825.24 1748.82 2833.29 1718.64 2833.29 1718.64 2833.29 1718.64 2879.6 1718.64 2879.6 1718.64 2879.6 1718.64 2889.67 1748.82 2889.67 1748.82 2889.67 1748.82 2891.68 1754.86 2893.69 1760.89 2891.68 1762.9 2889.67 1766.93 2885.64 1768.94 2879.6 1768.94 2873.56 1768.94 2873.56 1768.94 2873.56 1768.94 2873.56 1779 2873.56 1779 2873.56 1779 2940 1779 2940 1779 2940 1779 2940 1768.94 2940 1768.94 2940 1768.94 2929.93 1768.94 2923.89 1760.89 2919.87 1744.8ZM2837.32 1704.56C2855.44 1642.19 2855.44 1642.19 2855.44 1642.19 2875.57 1704.56 2875.57 1704.56 2875.57 1704.56L2837.32 1704.56Z" fill="#030000" fill-rule="evenodd"/><path d="M3071.33 1627C3075.38 1627 3075.38 1627 3075.38 1627 3083.48 1627 3089.55 1627 3091.58 1631 3093.6 1633 3093.6 1639 3093.6 1649 3093.6 1727 3093.6 1727 3093.6 1727 3008.55 1615 3008.55 1615 3008.55 1615 2966.03 1615 2966.03 1615 2966.03 1615 2966.03 1627 2966.03 1627 2966.03 1627 2972.1 1627 2978.18 1627 2982.23 1631 2982.23 1753 2982.23 1753 2982.23 1753 2982.23 1763 2978.18 1769 2966.03 1769 2964 1769 2964 1769 2964 1769 2964 1779 2964 1779 2964 1779 3014.63 1779 3014.63 1779 3014.63 1779 3014.63 1769 3014.63 1769 3014.63 1769 3000.45 1771 2994.38 1763 2994.38 1747 2994.38 1649 2994.38 1649 2994.38 1649 3095.63 1779 3095.63 1779 3095.63 1779 3105.75 1779 3105.75 1779 3105.75 1779 3105.75 1639 3105.75 1639 3105.75 1639 3105.75 1629 3111.83 1625 3123.98 1627 3126 1627 3126 1627 3126 1627 3126 1615 3126 1615 3126 1615 3071.33 1615 3071.33 1615 3071.33 1615L3071.33 1627Z" fill="#030000" fill-rule="evenodd"/><path d="M3308.66 1627.07C3312.68 1627.07 3312.68 1627.07 3312.68 1627.07 3324.76 1625.06 3330.8 1635.12 3330.8 1653.23 3330.8 1717.61 3330.8 1717.61 3330.8 1717.61 3328.78 1747.8 3316.71 1763.89 3288.53 1765.9 3264.38 1763.89 3252.3 1749.81 3252.3 1721.64 3252.3 1643.17 3252.3 1643.17 3252.3 1643.17 3252.3 1631.1 3256.33 1627.07 3266.39 1627.07 3270.42 1627.07 3270.42 1627.07 3270.42 1627.07 3270.42 1615 3270.42 1615 3270.42 1615 3204 1615 3204 1615 3204 1615 3204 1627.07 3204 1627.07 3204 1627.07 3208.03 1627.07 3208.03 1627.07 3208.03 1627.07 3218.09 1625.06 3224.13 1631.1 3222.11 1643.17 3222.11 1721.64 3222.11 1721.64 3222.11 1721.64 3224.13 1761.88 3244.25 1782 3284.51 1782 3322.75 1782 3342.87 1757.86 3342.87 1713.59 3342.87 1647.19 3342.87 1647.19 3342.87 1647.19 3342.87 1633.11 3348.91 1625.06 3360.99 1627.07 3363 1627.07 3363 1627.07 3363 1627.07 3363 1615 3363 1615 3363 1615 3308.66 1615 3308.66 1615 3308.66 1615L3308.66 1627.07Z" fill="#030000" fill-rule="evenodd"/><path d="M3493.66 1627C3495.67 1627 3495.67 1627 3495.67 1627 3505.74 1627 3509.76 1627 3511.77 1631 3513.79 1633 3515.8 1639 3515.8 1649 3515.8 1727 3515.8 1727 3515.8 1727 3429.26 1615 3429.26 1615 3429.26 1615 3387 1615 3387 1615 3387 1615 3387 1627 3387 1627 3387 1627 3395.05 1627 3399.07 1627 3403.1 1631 3403.1 1753 3403.1 1753 3403.1 1753 3405.11 1763 3399.07 1769 3389.01 1769 3387 1769 3387 1769 3387 1769 3387 1779 3387 1779 3387 1779 3437.31 1779 3437.31 1779 3437.31 1779 3437.31 1769 3437.31 1769 3437.31 1769 3423.22 1771 3415.18 1763 3417.19 1747 3417.19 1649 3417.19 1649 3417.19 1649 3515.8 1779 3515.8 1779 3515.8 1779 3527.88 1779 3527.88 1779 3527.88 1779 3527.88 1639 3527.88 1639 3527.88 1639 3527.88 1629 3533.91 1625 3545.99 1627 3548 1627 3548 1627 3548 1627 3548 1615 3548 1615 3548 1615 3493.66 1615 3493.66 1615 3493.66 1615L3493.66 1627Z" fill="#030000" fill-rule="evenodd"/><path d="M3575 1627C3577.03 1627 3577.03 1627 3577.03 1627 3589.21 1625 3593.27 1631 3593.27 1645 3593.27 1751 3593.27 1751 3593.27 1751 3593.27 1763 3589.21 1769 3577.03 1769 3575 1769 3575 1769 3575 1769 3575 1779 3575 1779 3575 1779 3642 1779 3642 1779 3642 1779 3642 1769 3642 1769 3642 1769 3637.94 1769 3637.94 1769 3637.94 1769 3627.79 1769 3621.7 1763 3621.7 1749 3621.7 1645 3621.7 1645 3621.7 1645 3621.7 1633 3627.79 1627 3637.94 1627 3642 1627 3642 1627 3642 1627 3642 1615 3642 1615 3642 1615 3575 1615 3575 1615 3575 1615L3575 1627Z" fill="#030000" fill-rule="evenodd"/><path d="M3766.66 1627.07C3770.68 1627.07 3770.68 1627.07 3770.68 1627.07 3782.76 1627.07 3786.79 1631.1 3784.78 1641.16 3752.57 1737.73 3752.57 1737.73 3752.57 1737.73 3720.36 1649.2 3720.36 1649.2 3720.36 1649.2 3716.33 1641.16 3716.33 1635.12 3718.34 1631.1 3720.36 1627.07 3726.39 1627.07 3734.45 1627.07 3738.47 1627.07 3738.47 1627.07 3738.47 1627.07 3738.47 1615 3738.47 1615 3738.47 1615 3666 1615 3666 1615 3666 1615 3666 1627.07 3666 1627.07 3666 1627.07 3668.01 1627.07 3668.01 1627.07 3668.01 1627.07 3674.05 1627.07 3678.08 1627.07 3680.09 1631.1 3682.11 1633.11 3686.13 1639.14 3690.16 1647.19 3738.47 1782 3738.47 1782 3738.47 1782 3750.55 1782 3750.55 1782 3750.55 1782 3794.84 1653.23 3794.84 1653.23 3794.84 1653.23 3800.88 1633.11 3808.93 1625.06 3819 1627.07 3819 1627.07 3819 1627.07 3819 1627.07 3819 1615 3819 1615 3819 1615 3766.66 1615 3766.66 1615 3766.66 1615L3766.66 1627.07Z" fill="#030000" fill-rule="evenodd"/><path d="M3936.5 1765C3901.97 1765 3901.97 1765 3901.97 1765 3895.88 1765 3891.81 1761 3891.81 1751 3891.81 1705 3891.81 1705 3891.81 1705 3924.31 1705 3924.31 1705 3924.31 1705 3938.53 1703 3944.62 1709 3942.59 1723 3950.72 1723 3950.72 1723 3950.72 1723 3950.72 1671 3950.72 1671 3950.72 1671 3942.59 1671 3942.59 1671 3942.59 1671 3942.59 1683 3938.53 1689 3926.34 1689 3891.81 1689 3891.81 1689 3891.81 1689 3891.81 1631 3891.81 1631 3891.81 1631 3938.53 1631 3938.53 1631 3938.53 1631 3946.66 1629 3952.75 1637 3952.75 1653 3962.91 1653 3962.91 1653 3962.91 1653 3958.84 1615 3958.84 1615 3958.84 1615 3843.06 1615 3843.06 1615 3843.06 1615 3843.06 1627 3843.06 1627 3843.06 1627 3845.09 1627 3845.09 1627 3845.09 1627 3859.31 1625 3865.41 1631 3863.38 1645 3863.38 1751 3863.38 1751 3863.38 1751 3865.41 1763 3859.31 1769 3847.12 1769 3839 1769 3839 1769 3839 1769 3839 1779 3839 1779 3839 1779 3966.97 1779 3966.97 1779 3966.97 1779 3969 1737 3969 1737 3969 1737 3960.88 1737 3960.88 1737 3960.88 1737 3956.81 1757 3948.69 1765 3936.5 1765Z" fill="#030000" fill-rule="evenodd"/><path d="M4128.84 1754.86C4122.8 1748.82 4118.77 1740.77 4110.73 1728.7 4102.67 1716.63 4096.64 1706.57 4092.61 1700.54 4112.74 1694.5 4122.8 1680.42 4122.8 1658.29 4122.8 1648.23 4120.79 1638.17 4112.74 1630.12 4104.69 1616.04 4084.56 1610 4056.39 1610 4048.34 1610 4036.26 1612.01 4022.18 1612.01 4016.14 1612.01 4010.1 1614.02 4000.04 1614.02 3998.02 1614.02 3996.01 1614.02 3994 1614.02 3994 1626.1 3994 1626.1 3994 1626.1 3998.02 1626.1 3998.02 1626.1 3998.02 1626.1 4010.1 1624.08 4016.14 1630.12 4016.14 1644.2 4016.14 1748.82 4016.14 1748.82 4016.14 1748.82 4016.14 1762.9 4010.1 1768.94 3998.02 1768.94 3994 1768.94 3994 1768.94 3994 1768.94 3994 1779 3994 1779 3994 1779 4066.45 1779 4066.45 1779 4066.45 1779 4066.45 1768.94 4066.45 1768.94 4066.45 1768.94 4060.41 1768.94 4060.41 1768.94 4060.41 1768.94 4050.35 1768.94 4044.31 1762.9 4044.31 1748.82 4044.31 1708.58 4044.31 1708.58 4044.31 1708.58 4060.41 1708.58 4060.41 1708.58 4060.41 1708.58 4066.45 1714.62 4072.49 1724.68 4082.55 1740.77 4090.6 1752.85 4094.62 1760.89 4096.64 1764.92 4102.67 1770.95 4106.7 1774.98 4114.75 1776.99 4120.79 1779 4130.85 1779 4142.92 1779 4148.96 1779 4152.99 1779 4155 1779 4155 1770.95 4155 1770.95 4155 1770.95 4144.94 1770.95 4134.88 1764.92 4128.84 1754.86ZM4052.36 1698.52C4044.31 1698.52 4044.31 1698.52 4044.31 1698.52 4044.31 1622.07 4044.31 1622.07 4044.31 1622.07 4056.39 1622.07 4056.39 1622.07 4056.39 1622.07 4078.52 1622.07 4092.61 1636.15 4092.61 1660.3 4092.61 1686.45 4078.52 1698.52 4052.36 1698.52Z" fill="#030000" fill-rule="evenodd"/><path d="M4235 1672.73C4219 1660.59 4209 1650.47 4209 1640.35 4211 1628.21 4217 1622.14 4229 1622.14 4247 1622.14 4259 1634.28 4265 1656.54 4273 1656.54 4273 1656.54 4273 1656.54 4269 1614.05 4269 1614.05 4269 1614.05 4265 1614.05 4265 1614.05 4265 1614.05 4263 1616.07 4263 1616.07 4263 1616.07 4261 1618.09 4261 1618.09 4259 1618.09 4259 1618.09 4257 1618.09 4253 1616.07 4243 1612.02 4235 1610 4227 1610 4201 1612.02 4187 1628.21 4185 1654.52 4189 1680.82 4201 1697.01 4221 1707.13 4239 1715.22 4249 1727.36 4251 1745.58 4251 1761.76 4243 1769.86 4229 1769.86 4211 1769.86 4199 1757.72 4193 1731.41 4185 1731.41 4185 1731.41 4185 1731.41 4189 1777.95 4189 1777.95 4189 1777.95 4195 1777.95 4195 1777.95 4195 1777.95 4197 1775.93 4197 1773.91 4199 1773.91 4201 1773.91 4203 1775.93 4207 1775.93 4219 1779.98 4227 1782 4235 1782 4263 1779.98 4277 1763.79 4279 1733.44 4279 1721.29 4275 1709.15 4267 1699.04 4261 1690.94 4249 1680.82 4235 1672.73Z" fill="#030000" fill-rule="evenodd"/><path d="M4311 1627C4315 1627 4315 1627 4315 1627 4325 1625 4331 1631 4329 1645 4329 1751 4329 1751 4329 1751 4331 1763 4325 1769 4315 1769 4311 1769 4311 1769 4311 1769 4311 1779 4311 1779 4311 1779 4377 1779 4377 1779 4377 1779 4377 1769 4377 1769 4377 1769 4375 1769 4375 1769 4375 1769 4363 1769 4357 1763 4359 1749 4359 1645 4359 1645 4359 1645 4359 1633 4363 1627 4375 1627 4377 1627 4377 1627 4377 1627 4377 1615 4377 1615 4377 1615 4311 1615 4311 1615 4311 1615L4311 1627Z" fill="#030000" fill-rule="evenodd"/><path d="M4536.93 1610C4534.91 1614.02 4530.89 1616.04 4526.86 1614.02 4428.16 1614.02 4428.16 1614.02 4428.16 1614.02 4426.14 1614.02 4424.13 1614.02 4422.11 1614.02 4420.1 1614.02 4420.1 1612.01 4418.09 1610 4410.03 1610 4410.03 1610 4410.03 1610 4406 1658.29 4406 1658.29 4406 1658.29 4416.07 1658.29 4416.07 1658.29 4416.07 1658.29 4418.09 1644.2 4420.1 1636.15 4422.11 1634.14 4424.13 1630.12 4430.17 1628.11 4438.23 1628.11 4462.4 1628.11 4462.4 1628.11 4462.4 1628.11 4462.4 1748.82 4462.4 1748.82 4462.4 1748.82 4464.41 1762.9 4458.37 1768.94 4446.29 1768.94 4440.24 1768.94 4440.24 1768.94 4440.24 1768.94 4440.24 1779 4440.24 1779 4440.24 1779 4514.77 1779 4514.77 1779 4514.77 1779 4514.77 1768.94 4514.77 1768.94 4514.77 1768.94 4510.74 1768.94 4510.74 1768.94 4510.74 1768.94 4496.64 1768.94 4490.6 1762.9 4492.61 1748.82 4492.61 1628.11 4492.61 1628.11 4492.61 1628.11 4516.79 1628.11 4516.79 1628.11 4516.79 1628.11 4524.84 1628.11 4530.89 1630.12 4532.9 1634.14 4534.91 1636.15 4536.93 1644.2 4538.94 1658.29 4547 1658.29 4547 1658.29 4547 1658.29 4544.99 1610 4544.99 1610 4544.99 1610L4536.93 1610Z" fill="#030000" fill-rule="evenodd"/><path d="M4675.67 1615C4675.67 1627 4675.67 1627 4675.67 1627 4677.68 1627 4677.68 1627 4677.68 1627 4683.72 1627 4687.75 1627 4689.76 1631 4691.78 1635 4689.76 1639 4687.75 1647 4661.58 1695 4661.58 1695 4661.58 1695 4629.37 1639 4629.37 1639 4629.37 1639 4627.36 1635 4625.34 1631 4627.36 1629 4629.37 1627 4633.39 1627 4637.42 1627 4641.45 1627 4641.45 1627 4641.45 1627 4641.45 1615 4641.45 1615 4641.45 1615 4573 1615 4573 1615 4573 1615 4573 1627 4573 1627 4573 1627 4575.01 1627 4575.01 1627 4575.01 1627 4579.04 1627 4583.07 1627 4585.08 1629 4587.09 1629 4591.12 1633 4593.13 1639 4637.42 1713 4637.42 1713 4637.42 1713 4637.42 1751 4637.42 1751 4637.42 1751 4637.42 1763 4633.39 1769 4621.32 1769 4617.29 1769 4617.29 1769 4617.29 1769 4617.29 1779 4617.29 1779 4617.29 1779 4687.75 1779 4687.75 1779 4687.75 1779 4687.75 1769 4687.75 1769 4687.75 1769 4685.74 1769 4685.74 1769 4685.74 1769 4671.64 1769 4665.61 1763 4667.62 1749 4667.62 1713 4667.62 1713 4667.62 1713 4701.84 1645 4701.84 1645 4701.84 1645 4705.87 1637 4709.89 1633 4711.91 1631 4715.93 1629 4719.96 1627 4726 1627 4726 1615 4726 1615 4726 1615L4675.67 1615Z" fill="#030000" fill-rule="evenodd"/><path d="M1920.32 963.445C1929.8 951.62 1932.17 944.526 1946.38 932.701 1960.6 920.876 1934.54 949.255 1981.92 899.591 2026.94 852.292 2041.15 786.073 2041.15 786.073 2041.15 786.073 2053 729.314 2041.15 696.204 2029.31 663.095 2019.83 658.365 2000.88 656 1984.29 656 1974.82 670.19 1974.82 672.555 1974.82 672.555 1974.82 672.555 1974.82 672.555 1972.45 672.555 1974.82 672.555 1974.82 672.555 1974.82 670.19 1970.08 670.19 1974.82 708.029 1977.18 748.234 1962.97 814.453 1962.97 814.453 1951.12 840.467 1936.91 871.212 1925.06 899.591 1915.58 920.876 1903.74 939.796 1901.37 958.715 1899 980 1910.85 975.27 1920.32 963.445Z" fill="#7C7B7C" fill-rule="evenodd"/><path d="M1989.81 1193.88C1968.25 1229.39 1965.85 1276.73 1958.66 1309.87 1956.26 1326.44 1958.66 1343.01 1951.47 1354.85 1927.51 1385.62 1922.72 1312.24 1917.92 1298.03 1913.13 1281.46 1910.74 1215.18 1910.74 1153.64 1908.34 1092.09 1913.13 1035.28 1913.13 1002.14 1913.13 969 1889.17 995.039 1886.77 1006.87 1886.77 1018.71 1879.58 1087.36 1879.58 1087.36 1879.58 1087.36 1870 1186.78 1872.4 1248.32 1874.79 1309.87 1874.79 1456.63 1953.87 1456.63 1989.81 1459 1994.6 1390.35 1997 1326.44 1997 1253.06 1992.21 1182.04 1989.81 1193.88Z" fill="#7C7B7C" fill-rule="evenodd"/><path d="M2362.16 776.211C2293.33 790.421 2160.41 842.526 2070.21 960.948 2046.47 991.737 2032.23 1013.05 2025.11 1029.63 1999 1074.63 2027.48 1062.79 2027.48 1060.42 2029.86 1060.42 2029.86 1043.84 2044.1 1039.11 2048.85 1036.74 2084.45 1008.32 2124.8 977.526 2179.4 937.263 2241.11 892.263 2252.98 885.158 2274.34 875.684 2283.83 863.842 2276.71 887.526 2269.59 911.211 2098.69 1188.32 2091.57 1202.53 2086.82 1216.74 2110.56 1238.05 2120.05 1242.79 2127.18 1247.53 2160.41 1257 2179.4 1235.68 2200.76 1214.37 2274.34 1148.05 2295.7 1140.95 2317.07 1133.84 2317.07 1131.47 2328.93 1138.58 2340.8 1145.68 2352.67 1148.05 2366.91 1138.58 2381.15 1126.74 2404.89 1110.16 2407.26 1088.84 2409.64 1074.63 2400.14 1055.68 2374.03 1058.05 2364.54 1058.05 2352.67 1055.68 2333.68 1060.42 2314.69 1067.53 2293.33 1084.11 2288.58 1086.47 2283.83 1088.84 2233.99 1124.37 2257.73 1079.37 2290.96 1017.79 2388.27 880.421 2393.02 866.211 2397.77 852 2409.64 830.684 2416.76 811.737 2423.88 792.79 2431 762 2362.16 776.211Z" fill="#7C7B7C" fill-rule="evenodd"/><path d="M2723.29 1160.47C2693.92 1165.4 2691.47 1172.8 2681.68 1197.45 2676.79 1209.78 2676.79 1224.58 2674.34 1241.84 2669.45 1264.03 2667 1291.16 2669.45 1305.95 2671.9 1335.55 2674.34 1340.48 2691.47 1355.27 2715.95 1375 2737.97 1367.6 2747.76 1345.41 2760 1320.75 2755.11 1251.7 2755.11 1241.84 2752.66 1234.44 2750.21 1158 2723.29 1160.47Z" fill="#7C7B7C" fill-rule="evenodd"/><path d="M3159.88 826.99C3110.57 824.519 3100.7 834.404 3078.51 839.346 3056.32 846.76 2984.82 901.125 2955.23 923.365 2925.65 945.606 2923.18 943.135 2930.58 911.01 2937.97 876.413 2989.75 871.471 3019.34 826.99 3051.39 784.981 3043.99 775.096 3011.94 700.961 2979.89 626.827 2940.44 612 2898.52 614.471 2856.61 616.942 2876.33 631.769 2891.13 668.836 2903.46 708.375 2896.06 775.096 2886.2 797.336 2873.87 817.106 2873.87 839.346 2873.87 839.346 2873.87 841.817 2878.8 856.644 2856.61 864.058 2834.42 869 2834.42 866.529 2809.76 873.942 2785.11 881.356 2797.43 896.183 2807.3 903.596 2814.69 911.01 2824.56 915.952 2839.35 918.423 2851.68 918.423 2851.68 920.894 2851.68 925.836 2854.14 930.779 2856.61 997.5 2851.68 1002.44 2849.21 1007.38 2812.23 1039.51 2807.3 1041.98 2804.83 1044.45 2780.17 1064.22 2760.45 1079.05 2740.73 1088.93 2725.93 1093.87 2725.93 1101.29 2723.47 1116.12 2721 1118.59 2725.93 1133.41 2733.33 1148.24 2777.71 1133.41 2792.5 1128.47 2809.76 1121.06 2854.14 1096.35 2866.47 1083.99 2881.26 1071.63 2910.85 1051.87 2915.78 1044.45 2923.18 1037.04 2920.71 1039.51 2918.25 1059.28 2913.32 1079.05 2896.06 1086.46 2891.13 1091.4 2886.2 1096.35 2876.33 1121.06 2898.52 1138.36 2913.32 1148.24 2888.66 1190.25 2886.2 1192.72 2881.26 1200.13 2871.4 1197.66 2868.94 1212.49 2859.07 1266.86 2868.94 1261.91 2883.73 1269.33 2898.52 1276.74 2910.85 1261.91 2913.32 1281.68 2913.32 1294.04 2915.78 1301.45 2915.78 1313.81 2915.78 1321.22 2918.25 1333.58 2920.71 1345.93 2933.04 1383 2955.23 1373.12 2965.1 1355.82 2972.49 1340.99 2965.1 1249.56 2974.96 1234.73 2984.82 1219.9 2999.61 1187.78 3011.94 1160.6 3026.74 1135.88 3011.94 1098.82 2987.29 1081.52 2965.1 1064.22 2962.63 1064.22 2967.56 1059.28 2970.03 1054.34 2992.22 1037.04 2999.61 1027.15 3009.48 1017.27 3039.06 972.788 3046.46 953.019 3051.39 930.779 3043.99 918.423 3039.06 908.538 3034.13 901.125 3039.06 903.596 3041.53 898.654 3046.46 893.711 3073.58 876.413 3073.58 876.413 3073.58 876.413 3130.29 839.346 3127.83 873.942 3125.36 908.538 3120.43 982.673 3115.5 1007.38 3110.57 1034.57 3108.1 1039.51 3095.77 1093.87 3083.44 1145.77 3071.12 1160.6 3068.65 1168.01 3063.72 1177.89 3056.32 1185.31 3051.39 1190.25 3043.99 1195.19 3011.94 1190.25 3039.06 1205.08 3063.72 1219.9 3085.91 1197.66 3098.24 1187.78 3108.1 1180.37 3127.83 1140.83 3130.29 1123.53 3135.22 1108.7 3140.15 1059.28 3140.15 1046.92 3140.15 1037.04 3147.55 1024.68 3147.55 1002.44 3150.02 992.558 3154.95 955.49 3162.34 913.481 3169.74 873.942 3187 826.99 3159.88 826.99Z" fill="#7C7B7C" fill-rule="evenodd"/><path d="M3717.8 1195.11C3700.56 1187.71 3661.16 1168 3656.24 1177.86 3651.31 1185.25 3639 1180.32 3641.46 1182.79 3641.46 1187.71 3639 1185.25 3646.39 1192.64 3651.31 1202.5 3668.55 1219.75 3673.48 1229.61 3678.4 1237 3698.1 1269.04 3695.64 1286.29 3690.71 1306 3776.9 1298.61 3806.45 1266.57 3836 1237 3737.5 1200.04 3717.8 1195.11Z" fill="#7C7B7C" fill-rule="evenodd"/><path d="M3794.71 931.435C3812 901.801 3804.59 872.168 3772.48 884.515 3742.83 896.863 3720.6 928.966 3683.54 946.252 3646.49 963.538 3634.14 963.538 3646.49 933.904 3658.84 906.74 3661.31 867.229 3666.25 837.595 3671.19 810.431 3658.84 780.798 3634.14 756.103 3624.26 748.695 3564.97 724 3560.03 738.817 3564.97 751.164 3587.2 825.248 3587.2 840.065 3584.73 854.882 3587.2 946.252 3562.5 980.824 3557.56 988.233 3557.56 1000.58 3550.15 1003.05 3527.92 1010.46 3505.68 1012.93 3485.92 1015.4 3461.22 1020.34 3453.81 1015.4 3456.28 1054.91 3458.75 1067.26 3535.33 1052.44 3527.92 1072.19 3520.5 1084.54 3522.98 1089.48 3495.8 1141.34 3458.75 1208.02 3416.75 1254.94 3384.64 1287.04 3357.47 1316.67 3340.17 1331.49 3332.76 1333.96 3313 1336.43 3355 1371 3421.69 1319.14 3488.39 1267.28 3480.98 1274.69 3493.33 1259.87 3505.68 1245.06 3582.26 1114.18 3594.61 1082.07 3604.49 1049.97 3599.55 1042.56 3636.61 1027.74 3671.19 1015.4 3777.42 961.069 3794.71 931.435Z" fill="#7C7B7C" fill-rule="evenodd"/><path d="M4258.59 823.913C4243.7 833.826 4213.92 856.13 4174.2 873.478 4134.49 890.826 4097.26 898.261 4094.78 898.261 4094.78 900.739 4087.34 905.696 4084.86 910.652 4084.86 913.13 4065 972.609 4109.67 980.043 4139.46 985 4186.61 962.695 4208.95 942.869 4231.29 920.565 4263.55 858.609 4268.52 848.696 4271 838.783 4271 814 4258.59 823.913Z" fill="#7C7B7C" fill-rule="evenodd"/><path d="M4673.27 643.351C4609.06 631 4485.59 700.166 4455.96 712.517 4426.33 727.338 4376.94 752.04 4357.18 752.04 4339.9 749.57 4320.14 761.921 4292.98 756.98 4268.29 752.04 4310.27 826.146 4322.61 836.027 4334.96 848.378 4344.84 863.199 4381.88 882.96 4391.75 887.901 4396.69 887.901 4394.22 892.841 4389.29 912.603 4342.37 944.715 4283.1 1001.53 4265.82 1021.29 4255.94 1018.82 4253.47 1033.64 4251 1053.4 4255.94 1083.05 4265.82 1087.99 4278.16 1097.87 4292.98 1083.05 4302.86 1080.58 4322.61 1075.64 4327.55 1085.52 4327.55 1107.75 4327.55 1127.51 4330.02 1184.32 4325.08 1184.32 4322.61 1184.32 4292.98 1194.21 4285.57 1199.15 4280.63 1201.62 4263.35 1206.56 4263.35 1228.79 4263.35 1251.02 4263.35 1288.07 4265.82 1297.95 4265.82 1310.3 4278.16 1322.66 4307.8 1339.95 4339.9 1359.71 4389.29 1377 4426.33 1369.59 4463.37 1359.71 4475.71 1339.95 4475.71 1315.25 4478.18 1293.01 4468.31 1248.55 4446.08 1223.85 4421.39 1199.15 4428.8 1189.26 4441.14 1189.26 4451.02 1186.79 4475.71 1186.79 4502.88 1201.62 4530.04 1213.97 4572.02 1186.79 4572.02 1174.44 4572.02 1159.62 4579.43 1137.39 4532.51 1125.04 4483.12 1115.16 4453.49 1129.98 4431.27 1129.98 4406.57 1127.51 4394.22 1144.8 4404.1 1097.87 4413.98 1050.93 4416.45 1013.88 4374.47 1004 4332.49 994.119 4312.73 1008.94 4344.84 979.298 4379.41 947.186 4517.69 860.729 4534.98 850.848 4552.27 843.437 4574.49 823.676 4594.25 821.205 4616.47 818.735 4695.49 766.861 4705.37 739.689 4715.25 714.987 4735 655.702 4673.27 643.351ZM4342.37 1246.08C4342.37 1241.14 4347.31 1236.2 4359.65 1233.73 4369.53 1231.26 4376.94 1238.67 4381.88 1246.08 4389.29 1251.02 4399.16 1263.37 4401.63 1268.31 4401.63 1270.78 4401.63 1283.13 4401.63 1285.6 4401.63 1288.07 4399.16 1305.36 4372 1293.01 4344.84 1280.66 4339.9 1258.43 4339.9 1255.96 4339.9 1253.49 4339.9 1251.02 4342.37 1246.08ZM4520.16 784.152C4485.59 821.205 4416.45 875.55 4413.98 870.609 4411.51 865.669 4406.57 831.086 4426.33 808.854 4446.08 784.152 4473.25 756.98 4517.69 752.04 4562.14 749.57 4557.2 747.099 4520.16 784.152Z" fill="#7C7B7C" fill-rule="evenodd"/><path d="M190.5 1191.5C190.5 815.394 495.842 510.5 872.5 510.5 1249.16 510.5 1554.5 815.394 1554.5 1191.5 1554.5 1567.61 1249.16 1872.5 872.5 1872.5 495.842 1872.5 190.5 1567.61 190.5 1191.5Z" stroke="#005375" stroke-width="10.8856" stroke-miterlimit="8" fill="none" fill-rule="evenodd"/><path d="M155.5 1193.5C155.5 800.273 475.616 481.5 870.5 481.5 1265.38 481.5 1585.5 800.273 1585.5 1193.5 1585.5 1586.73 1265.38 1905.5 870.5 1905.5 475.616 1905.5 155.5 1586.73 155.5 1193.5Z" stroke="#005375" stroke-width="4.58333" stroke-miterlimit="8" fill="none" fill-rule="evenodd"/><path d="M379.423 814.82C379.423 814.82 374.615 802.102 369.808 794.154 365 787.795 366.603 787.795 366.603 787.795 366.603 787.795 366.603 784.615 369.808 783.026 373.013 781.436 376.218 779.846 381.026 784.615 387.436 790.974 390.641 802.102 390.641 802.102 390.641 802.102 395.449 814.82 392.244 829.128 387.436 843.436 390.641 835.487 389.038 838.667 387.436 841.846 387.436 843.436 387.436 846.615 385.833 849.795 384.231 852.974 382.628 848.205 381.026 845.026 381.026 840.256 381.026 835.487 381.026 827.538 379.423 821.179 379.423 814.82ZM392.244 873.641C392.244 873.641 400.256 892.718 408.269 903.846 414.679 914.974 430.705 942 445.128 934.051 451.538 930.872 445.128 918.154 438.718 905.436 430.705 892.718 422.692 880 422.692 881.59 422.692 891.128 427.5 899.077 430.705 907.026 430.705 910.205 433.91 913.384 433.91 914.974 432.308 922.923 424.295 911.795 421.09 908.615 419.487 905.436 411.474 894.308 405.064 883.179 398.654 872.051 392.244 860.923 389.038 854.564 385.833 848.205 384.231 856.154 385.833 857.743 385.833 860.923 392.244 873.641 392.244 873.641ZM414.679 852.974C414.679 852.974 411.474 859.333 411.474 848.205 411.474 843.436 411.474 838.667 411.474 830.718 416.282 798.923 435.513 775.077 446.731 765.538 457.949 756 459.551 762.359 461.154 767.128 461.154 771.897 461.154 776.667 462.756 779.846 462.756 783.026 459.551 818 459.551 832.308 459.551 843.436 464.359 832.308 465.961 830.718 465.961 830.718 469.167 824.359 470.769 821.179 473.974 818 477.179 818 478.782 816.41 483.59 813.231 486.795 816.41 488.397 819.59 490 822.769 486.795 829.128 485.192 832.308 483.59 835.487 481.987 837.077 478.782 835.487 475.577 835.487 475.577 837.077 472.372 840.256 469.167 843.436 462.756 864.102 461.154 868.872 459.551 875.231 453.141 876.82 451.538 876.82 448.333 876.82 441.923 875.231 441.923 872.051 441.923 868.872 443.526 800.513 441.923 795.743 441.923 790.974 441.923 794.154 438.718 797.333 437.115 800.513 429.103 814.82 424.295 827.538 419.487 837.077 416.282 846.615 414.679 846.615 413.077 849.795 414.679 852.974 414.679 852.974Z" fill="#005375" fill-rule="evenodd"/><path d="M633 718.082C633 714.898 633 710.122 634.591 705.347 634.591 702.163 634.591 698.979 636.182 697.388 637.773 691.02 637.773 689.428 644.136 689.428 648.909 687.837 650.5 703.755 650.5 705.347 650.5 706.939 652.091 721.265 648.909 726.041 647.318 730.816 642.545 732.408 637.773 729.224 634.591 726.041 633 724.449 633 718.082ZM661.636 630.53C656.864 632.122 658.454 635.306 660.045 636.898 663.227 638.49 664.818 640.081 668 640.081 669.591 640.081 669.591 641.673 669.591 641.673 671.182 643.265 671.182 656 669.591 657.592 669.591 657.592 661.636 663.959 661.636 665.551 660.045 665.551 655.273 670.326 652.091 671.918 647.318 675.102 644.136 675.102 644.136 676.694 644.136 679.877 642.545 679.877 644.136 683.061 645.727 686.245 655.273 683.061 658.454 683.061 661.636 681.469 669.591 676.694 672.773 673.51 675.954 671.918 682.318 667.143 682.318 665.551 683.909 663.959 683.909 665.551 683.909 668.735 682.318 671.918 679.136 673.51 677.545 675.102 675.954 676.694 674.364 681.469 679.136 684.653 682.318 686.245 677.545 695.796 677.545 695.796 675.954 697.388 674.364 695.796 672.773 698.979 671.182 710.122 672.773 710.122 675.954 711.714 679.136 711.714 682.318 710.122 682.318 713.306 682.318 716.49 682.318 718.082 682.318 719.673 683.909 721.265 683.909 724.449 683.909 726.041 687.091 734 691.864 732.408 693.454 729.224 695.045 726.041 693.454 706.939 695.045 703.755 696.636 700.571 699.818 694.204 703 689.428 704.591 684.653 703 676.694 698.227 673.51 693.454 670.326 691.864 670.326 693.454 668.735 693.454 667.143 698.227 663.959 699.818 662.367 701.409 660.775 707.773 651.224 709.364 646.449 710.955 643.265 709.364 640.081 707.773 638.49 707.773 636.898 707.773 636.898 709.364 636.898 709.364 635.306 715.727 632.122 715.727 632.122 715.727 632.122 726.864 624.163 725.273 630.53 725.273 638.49 725.273 652.816 723.682 659.184 722.091 663.959 722.091 663.959 718.909 675.102 717.318 686.245 714.136 689.428 714.136 691.02 712.545 692.612 710.955 694.204 710.955 695.796 709.364 695.796 703 695.796 707.773 698.979 712.545 700.571 717.318 695.796 720.5 694.204 722.091 692.612 725.273 684.653 726.864 681.469 726.864 678.286 728.455 668.735 728.455 667.143 728.455 663.959 730.045 662.367 730.045 657.592 730.045 654.408 731.636 648.041 733.227 638.49 734.818 630.53 738 622.571 731.636 620.979 722.091 620.979 720.5 622.571 715.727 624.163 710.955 625.755 696.636 636.898 690.273 641.673 685.5 644.857 683.909 644.857 685.5 638.49 687.091 632.122 698.227 630.53 704.591 622.571 710.955 613.02 709.364 611.428 703 595.51 695.045 581.183 688.682 578 679.136 578 671.182 579.592 674.364 582.775 677.545 589.143 680.727 597.102 679.136 611.428 677.545 616.204 674.364 619.388 674.364 624.163 674.364 624.163 674.364 624.163 675.954 627.347 671.182 628.939 666.409 630.53 666.409 628.939 661.636 630.53Z" fill="#005375" fill-rule="evenodd"/><path d="M1036.93 660.662C1036.93 660.662 1040.13 660.662 1040.13 659.075 1041.74 657.487 1049.75 662.25 1052.96 663.837 1056.16 665.425 1075.4 674.95 1068.99 681.3 1062.57 686.062 1044.94 686.062 1046.54 682.888 1048.15 678.125 1044.94 671.775 1043.34 670.188 1041.74 668.6 1038.53 665.425 1038.53 662.25 1036.93 660.662 1036.93 662.25 1036.93 660.662ZM1028.91 570.175C1028.91 571.762 1033.72 587.637 1032.12 590.812 1032.12 593.987 1030.51 611.45 1025.71 617.8 1024.1 619.387 1024.1 622.562 1022.5 622.562 1017.69 624.15 1012.88 624.15 1009.68 624.15 1003.26 624.15 1003.26 624.15 1003.26 632.087 1001.66 633.675 1019.29 632.087 1016.09 636.85 1014.49 638.437 1016.09 640.025 1008.07 649.55 1000.06 662.25 990.441 671.775 984.029 676.537 977.618 682.888 974.412 684.475 971.206 684.475 968 686.062 976.015 694 990.441 684.475 1004.87 674.95 1003.26 676.537 1006.47 673.362 1009.68 670.188 1027.31 646.375 1028.91 640.025 1032.12 633.675 1032.12 632.087 1038.53 628.912 1046.54 627.325 1068.99 617.8 1073.79 613.037 1077 606.687 1075.4 601.925 1068.99 603.512 1064.18 605.1 1057.76 611.45 1049.75 613.037 1043.34 616.212 1040.13 616.212 1043.34 611.45 1046.54 605.1 1046.54 597.162 1048.15 592.4 1049.75 586.05 1048.15 579.7 1043.34 574.937 1041.74 573.35 1030.51 567 1028.91 570.175Z" fill="#005375" fill-rule="evenodd"/><path d="M323.087 1243.97C323.087 1245.56 323.087 1245.56 323.087 1245.56 324.677 1250.33 323.087 1253.51 316.727 1255.1 261.079 1263.05 261.079 1263.05 261.079 1263.05 254.719 1264.64 251.54 1263.05 249.95 1259.87 249.95 1258.28 251.54 1256.69 251.54 1255.1 254.719 1251.92 254.719 1250.33 254.719 1248.74 254.719 1243.97 251.54 1240.79 248.36 1240.79 243.59 1242.38 242 1245.56 243.59 1255.1 243.59 1261.46 246.77 1266.23 251.54 1270.99 257.899 1275.76 265.849 1278.94 275.389 1277.35 319.907 1269.41 319.907 1269.41 319.907 1269.41 324.677 1269.41 327.857 1270.99 327.857 1277.35 327.857 1278.94 327.857 1278.94 327.857 1278.94 332.626 1277.35 332.626 1277.35 332.626 1277.35 327.857 1242.38 327.857 1242.38 327.857 1242.38 323.087 1243.97 323.087 1243.97 323.087 1243.97ZM331.036 1298.02C331.036 1299.61 331.036 1299.61 331.036 1299.61 332.626 1307.56 331.036 1310.74 324.677 1312.32 275.389 1326.63 275.389 1326.63 275.389 1326.63 270.619 1328.22 267.439 1325.04 265.849 1318.68 264.259 1317.09 264.259 1317.09 264.259 1317.09 259.489 1318.68 259.489 1318.68 259.489 1318.68 269.029 1361.6 269.029 1361.6 269.029 1361.6 273.799 1360.01 273.799 1360.01 273.799 1360.01 273.799 1356.83 273.799 1356.83 273.799 1356.83 272.209 1350.48 273.799 1345.71 280.158 1344.12 327.857 1331.4 327.857 1331.4 327.857 1331.4 334.216 1329.81 338.986 1331.4 340.576 1339.35 340.576 1340.94 340.576 1340.94 340.576 1340.94 345.346 1339.35 345.346 1339.35 345.346 1339.35 335.806 1296.43 335.806 1296.43 335.806 1296.43 331.036 1298.02 331.036 1298.02 331.036 1298.02ZM321.497 1418.83C310.367 1431.55 310.367 1431.55 310.367 1431.55 308.777 1434.72 305.597 1436.31 304.008 1436.31 302.418 1434.72 300.828 1433.14 299.238 1429.96 297.648 1425.19 297.648 1425.19 297.648 1425.19 292.878 1426.78 292.878 1426.78 292.878 1426.78 308.777 1469.7 308.777 1469.7 308.777 1469.7 313.547 1466.52 313.547 1466.52 313.547 1466.52 311.957 1461.75 313.547 1455.39 318.317 1449.03 367.605 1394.98 367.605 1394.98 367.605 1394.98 361.245 1375.91 361.245 1375.91 361.245 1375.91 358.065 1379.09 358.065 1379.09 358.065 1379.09 294.468 1383.86 294.468 1383.86 294.468 1383.86 286.518 1383.86 280.158 1382.27 278.569 1375.91 278.569 1374.32 278.569 1374.32 278.569 1374.32 273.799 1375.91 273.799 1375.91 273.799 1375.91 286.518 1410.88 286.518 1410.88 286.518 1410.88 291.288 1407.7 291.288 1407.7 291.288 1407.7 291.288 1406.11 291.288 1406.11 291.288 1406.11 288.108 1401.34 288.108 1396.57 288.108 1394.98 288.108 1393.39 291.288 1391.81 296.058 1391.81 310.367 1391.81 310.367 1391.81 310.367 1391.81 321.497 1418.83 321.497 1418.83 321.497 1418.83ZM326.267 1414.06C318.317 1390.22 318.317 1390.22 318.317 1390.22 350.116 1388.63 350.116 1388.63 350.116 1388.63 326.267 1414.06 326.267 1414.06 326.267 1414.06ZM378.735 1460.16C340.576 1490.36 340.576 1490.36 340.576 1490.36 332.626 1493.54 332.626 1499.9 337.396 1507.85 334.216 1511.03 334.216 1511.03 334.216 1511.03 316.727 1482.41 316.727 1482.41 316.727 1482.41 321.497 1479.23 321.497 1479.23 321.497 1479.23 321.497 1480.82 321.497 1480.82 321.497 1480.82 324.677 1487.18 329.447 1487.18 332.626 1484 381.914 1449.03 381.914 1449.03 381.914 1449.03 381.914 1444.26 380.325 1441.08 378.735 1437.9 381.914 1434.72 381.914 1434.72 381.914 1434.72 396.224 1458.57 396.224 1458.57 396.224 1458.57 380.325 1539.64 380.325 1539.64 380.325 1539.64 412.123 1515.79 412.123 1515.79 412.123 1515.79 415.303 1512.62 418.483 1511.03 418.483 1507.85 418.483 1506.26 416.893 1503.08 413.713 1498.31 413.713 1496.72 413.713 1496.72 413.713 1496.72 418.483 1493.54 418.483 1493.54 418.483 1493.54 435.972 1523.74 435.972 1523.74 435.972 1523.74 431.203 1526.92 431.203 1526.92 431.203 1526.92 431.203 1525.33 431.203 1525.33 431.203 1525.33 426.433 1518.97 423.253 1515.79 420.073 1518.97 364.425 1561.89 364.425 1561.89 364.425 1561.89 361.245 1555.53 361.245 1555.53 361.245 1555.53 378.735 1460.16 378.735 1460.16 378.735 1460.16ZM475.721 1627.07C447.102 1595.28 447.102 1595.28 447.102 1595.28 443.922 1598.45 443.922 1598.45 443.922 1598.45 447.102 1603.22 450.282 1607.99 450.282 1609.58 451.872 1612.76 450.282 1614.35 448.692 1617.53 435.972 1630.25 435.972 1630.25 435.972 1630.25 432.792 1630.25 428.023 1627.07 424.843 1622.3 412.123 1606.4 413.713 1588.92 428.023 1569.84 443.922 1553.95 459.821 1553.95 474.131 1566.66 483.67 1577.79 485.26 1590.51 478.901 1603.22 482.081 1607.99 482.081 1607.99 482.081 1607.99 497.98 1588.92 497.98 1588.92 497.98 1588.92 494.8 1587.33 494.8 1587.33 494.8 1587.33 494.8 1587.33 493.21 1587.33 491.62 1585.74 491.62 1584.15 490.03 1582.56 488.44 1579.38 483.67 1571.43 478.901 1565.07 475.721 1560.3 455.052 1539.64 434.382 1538.05 415.303 1555.53 396.224 1577.79 397.814 1600.04 420.073 1625.48 426.433 1633.43 435.972 1639.78 447.102 1644.55 461.411 1630.25 461.411 1630.25 461.411 1630.25 464.591 1625.48 469.361 1625.48 472.541 1631.84 475.721 1627.07 475.721 1627.07 475.721 1627.07ZM510.699 1620.71C485.26 1665.22 485.26 1665.22 485.26 1665.22 480.491 1671.58 482.081 1677.93 490.03 1682.7 488.44 1685.88 488.44 1685.88 488.44 1685.88 463.001 1668.4 463.001 1668.4 463.001 1668.4 464.591 1663.63 464.591 1663.63 464.591 1663.63 466.181 1663.63 466.181 1663.63 466.181 1663.63 470.951 1668.4 475.721 1666.81 477.311 1662.04 509.109 1607.99 509.109 1607.99 509.109 1607.99 507.52 1604.81 505.93 1601.63 502.75 1600.04 504.34 1595.28 504.34 1595.28 504.34 1595.28 526.599 1611.17 526.599 1611.17 526.599 1611.17 540.908 1692.24 540.908 1692.24 540.908 1692.24 561.577 1657.27 561.577 1657.27 561.577 1657.27 563.167 1652.5 564.757 1649.32 564.757 1647.73 563.167 1646.14 561.577 1642.96 556.807 1639.78 555.218 1638.19 555.218 1638.19 555.218 1638.19 558.397 1633.43 558.397 1633.43 558.397 1633.43 585.426 1654.09 585.426 1654.09 585.426 1654.09 583.836 1658.86 583.836 1658.86 583.836 1658.86 582.247 1657.27 582.247 1657.27 582.247 1657.27 575.887 1652.5 572.707 1652.5 569.527 1657.27 532.958 1719.26 532.958 1719.26 532.958 1719.26 528.189 1716.09 528.189 1716.09 528.189 1716.09 510.699 1620.71 510.699 1620.71 510.699 1620.71ZM617.225 1728.8C617.225 1746.29 617.225 1746.29 617.225 1746.29 617.225 1751.06 617.225 1752.65 615.635 1754.24 614.045 1755.83 612.455 1755.83 607.686 1754.24 604.506 1752.65 604.506 1752.65 604.506 1752.65 602.916 1757.42 602.916 1757.42 602.916 1757.42 639.484 1774.9 639.484 1774.9 639.484 1774.9 641.074 1770.13 641.074 1770.13 641.074 1770.13 636.304 1766.95 634.714 1762.18 634.714 1752.65 636.304 1676.35 636.304 1676.35 636.304 1676.35 618.815 1668.4 618.815 1668.4 618.815 1668.4 618.815 1673.17 618.815 1673.17 618.815 1673.17 575.887 1724.03 575.887 1724.03 575.887 1724.03 571.117 1731.98 564.757 1733.57 559.987 1730.39 558.397 1730.39 558.397 1730.39 558.397 1730.39 556.807 1735.16 556.807 1735.16 556.807 1735.16 587.016 1749.47 587.016 1749.47 587.016 1749.47 588.606 1744.7 588.606 1744.7 588.606 1744.7 587.016 1744.7 587.016 1744.7 587.016 1744.7 582.247 1741.52 579.067 1739.93 579.067 1738.34 577.477 1736.75 579.067 1733.57 582.247 1730.39 591.786 1717.68 591.786 1717.68 591.786 1717.68 617.225 1728.8 617.225 1728.8 617.225 1728.8ZM618.815 1720.85C598.146 1711.32 598.146 1711.32 598.146 1711.32 618.815 1685.88 618.815 1685.88 618.815 1685.88 618.815 1720.85 618.815 1720.85 618.815 1720.85ZM687.182 1717.68C728.521 1803.51 728.521 1803.51 728.521 1803.51 734.88 1805.1 734.88 1805.1 734.88 1805.1 753.96 1733.57 753.96 1733.57 753.96 1733.57 753.96 1728.8 758.73 1727.21 765.089 1730.39 766.679 1730.39 766.679 1730.39 766.679 1730.39 768.269 1725.62 768.269 1725.62 768.269 1725.62 736.47 1716.09 736.47 1716.09 736.47 1716.09 734.88 1720.85 734.88 1720.85 734.88 1720.85 736.47 1720.85 736.47 1720.85 736.47 1720.85 741.24 1722.44 744.42 1724.03 746.01 1725.62 746.01 1727.21 746.01 1731.98 744.42 1736.75 734.88 1776.49 734.88 1776.49 734.88 1776.49 699.902 1703.37 699.902 1703.37 699.902 1703.37 674.463 1695.42 674.463 1695.42 674.463 1695.42 674.463 1701.78 674.463 1701.78 674.463 1701.78 677.643 1701.78 680.823 1703.37 682.413 1706.55 666.513 1768.54 666.513 1768.54 666.513 1768.54 664.923 1774.9 661.743 1776.49 655.384 1774.9 655.384 1773.31 655.384 1773.31 655.384 1773.31 653.794 1779.67 653.794 1779.67 653.794 1779.67 682.413 1789.21 682.413 1789.21 682.413 1789.21 684.003 1782.85 684.003 1782.85 684.003 1782.85 674.463 1781.26 672.873 1776.49 674.463 1768.54 687.182 1717.68 687.182 1717.68 687.182 1717.68ZM935.213 1735.16C936.802 1735.16 936.802 1735.16 936.802 1735.16 944.752 1733.57 947.932 1738.34 947.932 1747.88 951.112 1782.85 951.112 1782.85 951.112 1782.85 951.112 1798.75 943.162 1808.28 927.263 1809.87 912.953 1811.46 905.004 1803.51 903.414 1789.21 901.824 1747.88 901.824 1747.88 901.824 1747.88 900.234 1741.52 903.414 1738.34 909.774 1736.75 911.363 1736.75 911.363 1736.75 911.363 1736.75 911.363 1731.98 911.363 1731.98 911.363 1731.98 871.615 1735.16 871.615 1735.16 871.615 1735.16 871.615 1739.93 871.615 1739.93 871.615 1739.93 874.795 1739.93 874.795 1739.93 874.795 1739.93 881.155 1739.93 884.335 1741.52 884.335 1749.47 885.924 1790.8 885.924 1790.8 885.924 1790.8 887.514 1811.46 901.824 1821 925.673 1819.41 947.932 1816.23 959.062 1803.51 959.062 1779.67 955.882 1744.7 955.882 1744.7 955.882 1744.7 955.882 1736.75 959.062 1733.57 967.011 1733.57 967.011 1733.57 967.011 1733.57 967.011 1733.57 967.011 1727.21 967.011 1727.21 967.011 1727.21 935.213 1730.39 935.213 1730.39 935.213 1730.39 935.213 1735.16 935.213 1735.16 935.213 1735.16ZM989.27 1741.52C1062.41 1792.39 1062.41 1792.39 1062.41 1792.39 1068.77 1790.8 1068.77 1790.8 1068.77 1790.8 1052.87 1719.26 1052.87 1719.26 1052.87 1719.26 1051.28 1714.5 1054.46 1711.32 1062.41 1709.73 1062.41 1708.14 1062.41 1708.14 1062.41 1708.14 1062.41 1703.37 1062.41 1703.37 1062.41 1703.37 1030.61 1712.91 1030.61 1712.91 1030.61 1712.91 1032.2 1717.68 1032.2 1717.68 1032.2 1717.68 1033.79 1717.68 1033.79 1717.68 1033.79 1717.68 1038.56 1716.09 1041.74 1716.09 1043.33 1716.09 1044.92 1717.68 1046.51 1720.85 1046.51 1725.62 1056.05 1766.95 1056.05 1766.95 1056.05 1766.95 994.04 1722.44 994.04 1722.44 994.04 1722.44 968.601 1728.8 968.601 1728.8 968.601 1728.8 970.191 1735.16 970.191 1735.16 970.191 1735.16 973.371 1733.57 976.551 1733.57 979.731 1735.16 994.04 1797.16 994.04 1797.16 994.04 1797.16 995.63 1803.51 992.45 1806.69 986.091 1808.28 986.091 1808.28 986.091 1808.28 986.091 1808.28 987.68 1814.64 987.68 1814.64 987.68 1814.64 1016.3 1805.1 1016.3 1805.1 1016.3 1805.1 1014.71 1800.33 1014.71 1800.33 1014.71 1800.33 1006.76 1803.51 1001.99 1800.33 1000.4 1792.39 989.27 1741.52 989.27 1741.52 989.27 1741.52ZM1070.36 1704.96C1068.77 1700.19 1068.77 1700.19 1068.77 1700.19 1105.34 1684.29 1105.34 1684.29 1105.34 1684.29 1106.93 1689.06 1106.93 1689.06 1106.93 1689.06 1105.34 1690.65 1105.34 1690.65 1105.34 1690.65 1098.98 1692.24 1097.39 1697.01 1098.98 1703.37 1118.06 1755.83 1118.06 1755.83 1118.06 1755.83 1119.65 1762.18 1124.42 1763.77 1130.77 1760.59 1132.36 1760.59 1132.36 1760.59 1132.36 1760.59 1133.95 1765.36 1133.95 1765.36 1133.95 1765.36 1095.8 1781.26 1095.8 1781.26 1095.8 1781.26 1094.21 1776.49 1094.21 1776.49 1094.21 1776.49 1095.8 1774.9 1095.8 1774.9 1095.8 1774.9 1102.16 1773.31 1103.75 1768.54 1102.16 1762.18 1083.08 1711.32 1083.08 1711.32 1083.08 1711.32 1081.49 1703.37 1078.31 1701.78 1071.95 1704.96 1070.36 1704.96 1070.36 1704.96 1070.36 1704.96ZM1186.42 1741.52C1192.78 1736.75 1192.78 1736.75 1192.78 1736.75 1188.01 1663.63 1188.01 1663.63 1188.01 1663.63 1186.42 1652.5 1188.01 1644.55 1194.37 1642.96 1194.37 1641.37 1194.37 1641.37 1194.37 1641.37 1192.78 1636.61 1192.78 1636.61 1192.78 1636.61 1164.16 1654.09 1164.16 1654.09 1164.16 1654.09 1165.75 1658.86 1165.75 1658.86 1165.75 1658.86 1168.93 1657.27 1168.93 1657.27 1168.93 1657.27 1175.29 1654.09 1178.47 1655.68 1178.47 1660.45 1183.24 1716.09 1183.24 1716.09 1183.24 1716.09 1146.67 1684.29 1146.67 1684.29 1146.67 1684.29 1143.49 1681.11 1141.9 1677.93 1141.9 1676.35 1141.9 1674.76 1145.08 1671.58 1149.85 1668.4 1151.44 1668.4 1151.44 1668.4 1151.44 1668.4 1148.26 1663.63 1148.26 1663.63 1148.26 1663.63 1110.11 1685.88 1110.11 1685.88 1110.11 1685.88 1113.29 1690.65 1113.29 1690.65 1113.29 1690.65 1113.29 1690.65 1113.29 1690.65 1113.29 1690.65 1116.47 1689.06 1119.65 1687.47 1121.24 1687.47 1122.83 1687.47 1126.01 1690.65 1130.77 1693.83 1186.42 1741.52 1186.42 1741.52 1186.42 1741.52ZM1248.43 1603.22C1251.61 1600.04 1256.38 1601.63 1261.15 1607.99 1265.92 1604.81 1265.92 1604.81 1265.92 1604.81 1254.79 1590.51 1254.79 1590.51 1254.79 1590.51 1197.55 1633.43 1197.55 1633.43 1197.55 1633.43 1200.73 1638.19 1200.73 1638.19 1200.73 1638.19 1200.73 1638.19 1200.73 1638.19 1200.73 1638.19 1207.09 1631.84 1211.86 1633.43 1215.04 1638.19 1243.66 1684.29 1243.66 1684.29 1243.66 1684.29 1248.43 1690.65 1246.84 1695.42 1242.07 1698.6 1237.3 1701.78 1237.3 1701.78 1237.3 1701.78 1240.48 1706.55 1240.48 1706.55 1240.48 1706.55 1302.49 1658.86 1302.49 1658.86 1302.49 1658.86 1291.36 1639.78 1291.36 1639.78 1291.36 1639.78 1288.18 1642.96 1288.18 1642.96 1288.18 1642.96 1291.36 1652.5 1289.77 1658.86 1283.41 1663.63 1265.92 1676.35 1265.92 1676.35 1265.92 1676.35 1264.33 1679.52 1261.15 1679.52 1257.97 1674.76 1245.25 1654.09 1245.25 1654.09 1245.25 1654.09 1261.15 1641.37 1261.15 1641.37 1261.15 1641.37 1267.51 1636.61 1272.28 1636.61 1275.46 1642.96 1278.64 1639.78 1278.64 1639.78 1278.64 1639.78 1264.33 1615.94 1264.33 1615.94 1264.33 1615.94 1261.15 1619.12 1261.15 1619.12 1261.15 1619.12 1264.33 1625.48 1264.33 1630.25 1257.97 1633.43 1242.07 1647.73 1242.07 1647.73 1242.07 1647.73 1226.17 1622.3 1226.17 1622.3 1226.17 1622.3 1248.43 1603.22 1248.43 1603.22 1248.43 1603.22ZM1313.62 1596.86C1326.34 1612.76 1326.34 1612.76 1326.34 1612.76 1331.11 1617.53 1335.88 1617.53 1340.65 1611.17 1342.24 1607.99 1342.24 1607.99 1342.24 1607.99 1345.42 1612.76 1345.42 1612.76 1345.42 1612.76 1315.21 1646.14 1315.21 1646.14 1315.21 1646.14 1312.03 1642.96 1312.03 1642.96 1312.03 1642.96 1313.62 1641.37 1313.62 1641.37 1313.62 1641.37 1318.39 1636.61 1318.39 1630.25 1313.62 1625.48 1278.64 1587.33 1278.64 1587.33 1278.64 1587.33 1275.46 1580.97 1270.69 1580.97 1265.92 1587.33 1264.33 1588.92 1264.33 1588.92 1264.33 1588.92 1259.56 1585.74 1259.56 1585.74 1259.56 1585.74 1261.15 1584.15 1261.15 1584.15 1262.74 1582.56 1265.92 1577.79 1269.1 1574.61 1270.69 1571.43 1277.05 1563.48 1281.82 1558.71 1285 1555.53 1297.72 1541.23 1307.26 1533.28 1315.21 1534.87 1321.57 1534.87 1326.34 1536.46 1329.52 1541.23 1337.47 1549.18 1337.47 1558.71 1331.11 1571.43 1334.29 1571.43 1340.65 1571.43 1348.6 1573.02 1354.96 1574.61 1359.73 1574.61 1364.5 1574.61 1370.86 1574.61 1377.22 1573.02 1381.98 1568.25 1383.57 1571.43 1383.57 1571.43 1383.57 1571.43 1383.57 1573.02 1380.4 1574.61 1378.8 1576.2 1374.04 1582.56 1369.27 1587.33 1366.09 1588.92 1362.91 1592.1 1358.14 1592.1 1353.37 1592.1 1351.78 1592.1 1347.01 1592.1 1340.65 1590.51 1331.11 1588.92 1324.75 1588.92 1319.98 1588.92 1313.62 1596.86 1313.62 1596.86 1313.62 1596.86ZM1283.41 1565.07C1288.18 1558.71 1288.18 1558.71 1288.18 1558.71 1299.31 1547.59 1308.85 1547.59 1316.8 1555.53 1326.34 1565.07 1324.75 1576.2 1313.62 1588.92 1308.85 1593.69 1308.85 1593.69 1308.85 1593.69 1283.41 1565.07 1283.41 1565.07 1283.41 1565.07ZM1396.29 1552.36C1397.88 1549.18 1397.88 1549.18 1397.88 1549.18 1396.29 1547.59 1396.29 1547.59 1397.88 1546 1397.88 1546 1399.47 1544.41 1401.06 1542.82 1405.83 1536.46 1409.01 1531.69 1412.19 1528.51 1421.73 1512.62 1420.14 1499.9 1409.01 1488.77 1404.24 1485.59 1397.88 1484 1389.93 1485.59 1385.16 1487.18 1377.22 1490.36 1369.27 1495.13 1358.14 1501.49 1351.78 1503.08 1348.6 1501.49 1343.83 1496.72 1343.83 1490.36 1348.6 1484 1353.37 1474.46 1362.91 1471.29 1372.45 1476.05 1375.63 1471.29 1375.63 1471.29 1375.63 1471.29 1358.14 1460.16 1358.14 1460.16 1358.14 1460.16 1356.55 1463.34 1356.55 1463.34 1356.55 1463.34 1356.55 1463.34 1356.55 1463.34 1356.55 1463.34 1356.55 1464.93 1356.55 1466.52 1356.55 1466.52 1356.55 1466.52 1354.96 1468.11 1353.37 1469.7 1348.6 1472.88 1345.42 1477.64 1342.24 1482.41 1334.29 1496.72 1335.88 1509.44 1345.42 1518.97 1356.55 1523.74 1367.68 1522.15 1378.8 1512.62 1388.34 1506.26 1396.29 1504.67 1402.65 1507.85 1409.01 1512.62 1410.6 1520.56 1405.83 1528.51 1399.47 1538.05 1389.93 1541.23 1377.22 1536.46 1375.63 1541.23 1375.63 1541.23 1375.63 1541.23 1396.29 1552.36 1396.29 1552.36 1396.29 1552.36ZM1372.45 1444.26C1369.27 1442.67 1369.27 1442.67 1369.27 1442.67 1388.34 1402.93 1388.34 1402.93 1388.34 1402.93 1393.11 1406.11 1393.11 1406.11 1393.11 1406.11 1391.52 1407.7 1391.52 1407.7 1391.52 1407.7 1388.34 1414.06 1389.93 1418.83 1394.7 1422.01 1437.63 1449.03 1437.63 1449.03 1437.63 1449.03 1443.99 1453.8 1448.76 1452.21 1450.35 1444.26 1451.94 1442.67 1451.94 1442.67 1451.94 1442.67 1456.71 1445.85 1456.71 1445.85 1456.71 1445.85 1437.63 1484 1437.63 1484 1437.63 1484 1432.86 1480.82 1432.86 1480.82 1432.86 1480.82 1432.86 1480.82 1432.86 1480.82 1432.86 1480.82 1436.04 1474.46 1436.04 1469.7 1429.68 1466.52 1386.75 1439.49 1386.75 1439.49 1386.75 1439.49 1380.4 1434.72 1377.22 1436.31 1374.04 1442.67 1372.45 1444.26 1372.45 1444.26 1372.45 1444.26ZM1413.78 1347.3C1418.55 1332.99 1418.55 1332.99 1418.55 1332.99 1420.14 1326.63 1421.73 1323.45 1424.91 1323.45 1426.5 1321.86 1429.68 1321.86 1437.63 1323.45 1439.22 1318.68 1439.22 1318.68 1439.22 1318.68 1415.37 1312.32 1415.37 1312.32 1415.37 1312.32 1413.78 1317.09 1413.78 1317.09 1413.78 1317.09 1415.37 1318.68 1415.37 1320.27 1415.37 1323.45 1394.7 1387.04 1394.7 1387.04 1394.7 1387.04 1393.11 1387.04 1393.11 1388.63 1393.11 1390.22 1391.52 1390.22 1391.52 1390.22 1389.93 1391.81 1388.34 1394.98 1388.34 1394.98 1388.34 1394.98 1410.6 1407.7 1410.6 1407.7 1410.6 1407.7 1412.19 1401.34 1412.19 1401.34 1412.19 1401.34 1405.83 1398.16 1402.65 1394.98 1401.06 1393.39 1401.06 1390.22 1401.06 1387.04 1402.65 1382.27 1407.42 1366.37 1407.42 1366.37 1407.42 1366.37 1461.48 1388.63 1461.48 1388.63 1461.48 1388.63 1467.84 1390.22 1469.43 1394.98 1466.25 1401.34 1466.25 1406.11 1466.25 1406.11 1466.25 1406.11 1469.43 1407.7 1469.43 1407.7 1469.43 1407.7 1485.33 1361.6 1485.33 1361.6 1485.33 1361.6 1480.56 1358.42 1480.56 1358.42 1480.56 1358.42 1480.56 1361.6 1480.56 1361.6 1480.56 1361.6 1477.38 1371.14 1472.61 1372.73 1467.84 1369.55 1413.78 1347.3 1413.78 1347.3 1413.78 1347.3ZM1472.61 1255.1C1490.1 1258.28 1490.1 1258.28 1490.1 1258.28 1496.46 1259.87 1499.64 1256.69 1501.23 1248.74 1501.23 1245.56 1501.23 1245.56 1501.23 1245.56 1506 1247.15 1506 1247.15 1506 1247.15 1499.64 1294.84 1499.64 1294.84 1499.64 1294.84 1494.87 1293.25 1494.87 1293.25 1494.87 1293.25 1494.87 1290.07 1494.87 1290.07 1494.87 1290.07 1496.46 1282.12 1493.28 1278.94 1488.51 1277.35 1471.02 1275.76 1471.02 1275.76 1471.02 1275.76 1431.27 1299.61 1431.27 1299.61 1431.27 1299.61 1428.09 1301.2 1426.5 1302.79 1424.91 1304.38 1424.91 1304.38 1424.91 1307.56 1423.32 1310.74 1423.32 1312.32 1423.32 1312.32 1423.32 1312.32 1418.55 1310.74 1418.55 1310.74 1418.55 1310.74 1424.91 1266.23 1424.91 1266.23 1424.91 1266.23 1429.68 1266.23 1429.68 1266.23 1429.68 1266.23 1429.68 1269.41 1429.68 1269.41 1429.68 1269.41 1428.09 1272.58 1428.09 1274.17 1429.68 1275.76 1431.27 1277.35 1432.86 1277.35 1434.45 1275.76 1463.07 1258.28 1463.07 1258.28 1463.07 1258.28 1442.4 1237.61 1442.4 1237.61 1442.4 1237.61 1439.22 1234.43 1437.63 1234.43 1436.04 1234.43 1434.45 1236.02 1432.86 1237.61 1432.86 1242.38 1432.86 1243.97 1432.86 1243.97 1432.86 1243.97 1428.09 1242.38 1428.09 1242.38 1428.09 1242.38 1431.27 1209 1431.27 1209 1431.27 1209 1436.04 1210.59 1436.04 1210.59 1436.04 1210.59 1436.04 1213.77 1436.04 1216.95 1437.63 1220.13 1437.63 1221.72 1439.22 1224.9 1442.4 1228.08L1472.61 1255.1Z" fill="#005375" fill-rule="evenodd"/><path d="M1264.29 725.595C1264.29 725.595 1270.65 730.378 1278.59 733.568 1286.53 738.351 1294.47 739.946 1297.65 739.946 1300.82 741.54 1296.06 744.73 1294.47 744.73 1292.88 746.324 1278.59 749.513 1272.24 747.919 1265.88 747.919 1256.35 743.135 1253.18 738.351 1250 730.378 1261.12 725.595 1261.12 725.595 1262.71 724 1264.29 725.595 1264.29 725.595ZM1321.47 746.324C1319.88 743.135 1315.12 743.135 1311.94 736.757 1310.35 731.973 1304 749.513 1304 752.703 1304 755.892 1302.41 759.081 1304 767.054 1304 770.243 1305.59 770.243 1304 770.243 1300.82 771.838 1289.71 770.243 1273.82 768.649 1267.47 767.054 1267.47 765.459 1264.29 767.054 1261.12 768.649 1256.35 775.027 1257.94 776.622 1257.94 779.811 1262.71 779.811 1262.71 781.405 1265.88 783 1265.88 786.189 1262.71 787.784 1259.53 790.973 1251.59 798.946 1250 798.946 1250 797.351 1243.65 794.162 1243.65 794.162 1242.06 794.162 1238.88 790.973 1235.71 794.162 1232.53 797.351 1226.18 802.135 1224.59 803.73 1223 805.324 1223 808.513 1224.59 816.486 1224.59 822.865 1229.35 834.027 1234.12 838.811 1240.47 842 1245.24 842 1250 838.811 1253.18 835.621 1259.53 829.243 1259.53 821.27 1259.53 814.892 1262.71 814.892 1264.29 816.486 1265.88 818.081 1269.06 821.27 1270.65 827.648 1272.24 834.027 1281.76 837.216 1283.35 835.621 1286.53 834.027 1291.29 830.838 1286.53 822.865 1281.76 813.297 1275.41 811.703 1272.24 806.919 1269.06 803.73 1265.88 803.73 1273.82 798.946 1283.35 794.162 1288.12 789.378 1284.94 781.405 1280.18 775.027 1275.41 773.432 1284.94 775.027 1294.47 775.027 1324.65 786.189 1329.41 787.784 1332.59 789.378 1338.94 789.378 1342.12 792.567 1345.29 795.757 1362.76 800.54 1367.53 798.946 1373.88 797.351 1385 792.567 1378.65 781.405 1372.29 770.243 1345.29 759.081 1340.53 757.486 1334.18 754.297 1323.06 749.513 1321.47 746.324ZM1310.35 771.838C1310.35 770.243 1315.12 763.865 1321.47 763.865 1327.82 765.459 1335.76 765.459 1342.12 771.838 1348.47 778.216 1348.47 776.622 1337.35 776.622 1327.82 775.027 1310.35 771.838 1310.35 771.838ZM1240.47 810.108C1242.06 810.108 1242.06 808.513 1243.65 808.513 1243.65 808.513 1245.24 808.513 1246.82 810.108 1248.41 810.108 1248.41 813.297 1248.41 814.892 1248.41 816.486 1248.41 819.676 1246.82 821.27 1246.82 821.27 1245.24 822.865 1243.65 822.865 1243.65 822.865 1240.47 824.459 1238.88 819.676 1238.88 813.297 1240.47 810.108 1240.47 810.108Z" fill="#005375" fill-rule="evenodd"/><path d="M874.5 709C1144.9 709 1366 925.066 1366 1188.79 1366 1452.52 1144.9 1667 874.5 1667 707.485 1667 559.558 1585.97 470.484 1462.05 491.162 1455.7 592.961 1438.22 844.278 1487.47 1129 1543.08 1327.83 1349.26 1327.83 1349.26 1227.62 1214.21 1227.62 1214.21 1227.62 1214.21 1183.08 1241.22 1148.09 1268.23 1114.68 1282.53 1092.41 1293.65 1071.74 1304.77 1047.88 1307.95 1022.43 1311.13 993.796 1315.89 960.393 1315.89 936.534 1317.48 911.084 1317.48 877.681 1314.3 831.553 1309.54 833.144 1311.13 763.157 1295.24 736.116 1288.88 693.17 1280.94 667.72 1277.76 577.055 1269.82 554.786 1271.41 556.377 1268.23 581.827 1231.69 581.827 1231.69 581.827 1231.69 581.827 1231.69 658.176 1233.28 772.701 1257.11 828.372 1268.23 890.406 1285.71 944.487 1284.12 996.977 1284.12 1022.43 1282.53 1038.33 1277.76 1054.24 1271.41 1105.14 1258.7 1132.18 1236.46 1157.63 1220.57 1181.49 1206.27 1206.94 1184.03 842.688 710.589 842.688 710.589 842.688 710.589 853.822 709 863.366 709 874.5 709ZM427.537 1388.97C427.537 1387.38 427.537 1387.38 429.128 1387.38 451.396 1381.03 537.29 1377.85 631.136 1385.8 731.345 1393.74 763.157 1395.33 861.775 1414.39 1066.96 1454.11 1229.21 1333.37 1229.21 1333.37 1210.12 1304.77 1210.12 1304.77 1210.12 1304.77 1210.12 1304.77 1144.9 1350.84 1051.06 1369.91 974.709 1385.8 879.272 1381.03 801.332 1361.97 620.002 1319.07 410.04 1344.49 410.04 1344.49 526.155 1174.5 526.155 1174.5 526.155 1174.5 526.155 1172.91 621.592 1161.79 820.419 1209.45 1019.25 1258.7 1105.14 1171.32 1105.14 1171.32 847.46 836.098 847.46 836.098 847.46 836.098 639.089 1141.13 639.089 1141.13 639.089 1141.13 551.605 1137.96 551.605 1137.96 551.605 1137.96 842.688 710.589 842.688 710.589 842.688 710.589 586.599 726.476 383 934.599 383 1188.79 383 1260.29 398.906 1327.01 427.537 1388.97Z" fill="#005375" fill-rule="evenodd"/></g></svg>